<svg xmlns="http://www.w3.org/2000/svg" viewBox="0 0 611 611" width="95" height="95">
	<style>
		tspan { white-space:pre }
		.shp0 { fill: none;stroke: #ffffff;stroke-width: 8 } 
		.shp1 { fill: #ffffff } 
	</style>
	<g id="Warstwa 1">
		<path id="&lt;Path&gt;" class="shp0" d="M606.09 606.58L4.32 606.58L4.32 4.81L606.09 4.81L606.09 606.58Z" />
		<g id="&lt;Group&gt;">
			<path id="&lt;Compound Path&gt;" class="shp1" d="M123.78 158.52L174.07 158.52L174.07 176.58L143.08 176.58L143.08 209.34L165.39 209.34L165.39 227.4L143.08 227.4L143.08 264.76L174.07 264.76L174.07 283.53L123.78 283.53L123.78 158.52Z" />
			<path id="&lt;Compound Path&gt;" class="shp1" d="M199.57 158.52L211.08 232.53C212.14 239.26 213.2 247.76 213.2 258.56L213.2 260.86C213.56 248.12 214.44 238.73 215.33 232.53L226.48 158.52L245.43 158.52L223.29 283.53L203.11 283.53L180.8 158.52L199.57 158.52Z" />
			<path id="&lt;Compound Path&gt;" class="shp1" d="M256.94 158.52L307.22 158.52L307.22 176.58L276.24 176.58L276.24 209.34L298.55 209.34L298.55 227.4L276.24 227.4L276.24 264.76L307.22 264.76L307.22 283.53L256.94 283.53L256.94 158.52Z" />
			<path id="&lt;Compound Path&gt;" fill-rule="evenodd" class="shp1" d="M341.22 283.53L321.92 283.53L321.92 158.52L350.25 158.52C371.14 158.52 380.35 168.97 380.35 194.64C380.35 209.52 377.16 219.08 368.13 225.45L382.3 283.53L362.29 283.53L350.43 230.94L341.22 230.94L341.22 283.53ZM341.22 212.88L348.83 212.88C358.22 212.88 360.7 207.74 360.7 193.93C360.7 180.65 357.51 176.58 348.12 176.58L341.22 176.58L341.22 212.88Z" />
			<path id="&lt;Compound Path&gt;" class="shp1" d="M403.37 158.52L415.94 208.45L417.18 208.45L429.04 158.52L448.7 158.52L426.21 231.65L426.21 283.53L406.91 283.53L406.91 233.95L383.89 158.52L403.37 158.52Z" />
			<path id="&lt;Compound Path&gt;" class="shp1" d="M142.4 316.11L150.9 390.12C151.61 396.32 152.14 402.7 152.14 409.78L152.14 412.26C152.85 399.33 153.2 391.19 153.73 387.65L163.29 316.11L179.76 316.11L190.03 390.12C190.91 396.32 191.27 403.76 191.27 412.26C191.8 401.81 192.15 393.66 192.86 387.65L200.83 316.11L219.07 316.11L199.59 441.12L183.48 441.12L172.85 368.52C172.15 363.56 171.61 356.13 171.61 346.39C170.91 360.02 170.38 368.17 170.02 371L159.75 441.12L143.64 441.12L123.99 316.11L142.4 316.11Z" />
			<path id="&lt;Compound Path&gt;" class="shp1" d="M249.35 316.11L249.35 367.11L268.65 367.11L268.65 316.11L287.95 316.11L287.95 441.12L268.65 441.12L268.65 385.17L249.35 385.17L249.35 441.12L230.22 441.12L230.22 316.11L249.35 316.11Z" />
			<path id="&lt;Compound Path&gt;" class="shp1" d="M307.78 316.11L358.06 316.11L358.06 334.17L327.08 334.17L327.08 366.93L349.39 366.93L349.39 384.99L327.08 384.99L327.08 422.35L358.06 422.35L358.06 441.12L307.78 441.12L307.78 316.11Z" />
			<path id="&lt;Compound Path&gt;" fill-rule="evenodd" class="shp1" d="M392.06 441.12L372.76 441.12L372.76 316.11L401.09 316.11C421.99 316.11 431.19 326.56 431.19 352.23C431.19 367.11 428 376.67 418.97 383.04L433.14 441.12L413.13 441.12L401.27 388.53L392.06 388.53L392.06 441.12ZM392.06 370.47L399.67 370.47C409.06 370.47 411.54 365.33 411.54 351.52C411.54 338.24 408.35 334.17 398.97 334.17L392.06 334.17L392.06 370.47Z" />
			<path id="&lt;Compound Path&gt;" class="shp1" d="M446.77 316.11L497.06 316.11L497.06 334.17L466.07 334.17L466.07 366.93L488.38 366.93L488.38 384.99L466.07 384.99L466.07 422.35L497.06 422.35L497.06 441.12L446.77 441.12L446.77 316.11Z" />
		</g>
		<g id="&lt;Group&gt;">
			<path id="&lt;Compound Path&gt;" class="shp1" d="M466.03 158.71L483.02 158.71L483.02 163.87L477.26 163.87L477.26 194.42L471.74 194.42L471.74 163.87L466.03 163.87L466.03 158.71Z" />
			<path id="&lt;Compound Path&gt;" class="shp1" d="M485.5 158.71L492.83 158.71L496.42 178.49C496.73 180.1 496.88 181.93 496.88 183.85C496.88 182.03 497.08 180.26 497.38 178.54L500.82 158.71L508.26 158.71L508.26 194.42L503.1 194.42L503.1 171.86C503.1 170.85 503.2 168.78 503.5 165.64C503.1 168.07 502.84 169.74 502.64 170.7L498.14 194.42L495.41 194.42L491.11 170.7C490.61 167.82 490.35 166.1 490.25 165.64C490.51 168.32 490.61 170.4 490.61 171.86L490.61 194.42L485.5 194.42L485.5 158.71Z" />
		</g>
	</g>
</svg>