<svg xmlns="http://www.w3.org/2000/svg" viewBox="0 0 90 84" width="46" height="47">
	<style>
		tspan { white-space:pre }
		.shp0 { fill: none;stroke: #000;stroke-linecap:round;stroke-linejoin:round;stroke-width: 4 } 
	</style>
	<g id="Layer 2">
		<g id="&lt;Group&gt;">
			<path id="&lt;Path&gt;" class="shp0" d="M67.91 66.44L67.91 3.9C67.91 3.11 69 2.48 70.35 2.48L77.03 2.48C78.38 2.48 79.47 3.11 79.47 3.9L79.47 66.44C79.47 67.22 78.38 67.85 77.03 67.85L70.35 67.85C69 67.85 67.91 67.22 67.91 66.44Z" />
			<path id="&lt;Path&gt;" class="shp0" d="M67.91 63.52L30.06 50.62L30.06 19.71L67.91 6.81L67.91 63.52Z" />
			<path id="&lt;Path&gt;" class="shp0" d="M12.67 48.85L12.67 21.71C12.67 20.61 13.56 19.71 14.67 19.71L30.06 19.71L30.06 50.85L14.67 50.85C13.56 50.85 12.67 49.95 12.67 48.85Z" />
			<path id="&lt;Path&gt;" class="shp0" d="M1.92 44.08L1.92 26.43C1.92 25.33 2.82 24.43 3.92 24.43L12.67 24.43L12.67 46.08L3.92 46.08C2.82 46.08 1.92 45.19 1.92 44.08Z" />
			<path id="&lt;Path&gt;" class="shp0" d="M80.41 21.72C84.5 21.72 87.82 27.74 87.82 35.17C87.82 42.59 84.5 48.61 80.41 48.61" />
			<path id="&lt;Path&gt;" class="shp0" d="M21.23 82.12L21.23 82.12C17.6 82.12 14.67 79.18 14.67 75.56L14.67 50.85L27.79 50.85L27.79 75.56C27.79 79.18 24.85 82.12 21.23 82.12Z" />
		</g>
	</g>
</svg>