<svg xmlns="http://www.w3.org/2000/svg" viewBox="0 0 98 76" width="46" height="47">
	<style>
		tspan { white-space:pre }
		.shp0 { fill: none;stroke: #000;stroke-linecap:round;stroke-linejoin:round;stroke-width: 4 } 
	</style>
	<g id="Layer 2">
		<g id="&lt;Group&gt;">
			<path id="&lt;Path&gt;" class="shp0" d="M74.38 46.05L78.75 50.41C80.48 52.14 80.48 54.95 78.75 56.68L78.75 56.68C77.01 58.41 74.21 58.41 72.48 56.68L69.44 53.64" />
			<path id="&lt;Path&gt;" class="shp0" d="M68.12 52.32L75.12 59.32C76.85 61.05 76.85 63.86 75.12 65.59L75.12 65.59C73.38 67.32 70.58 67.32 68.85 65.59L61.85 58.59" />
			<path id="&lt;Path&gt;" class="shp0" d="M60.09 56.83L67.53 64.27C69.26 66 69.26 68.81 67.53 70.54L67.53 70.54C65.79 72.27 62.99 72.27 61.26 70.54L53.82 63.1" />
			<path id="&lt;Path&gt;" class="shp0" d="M52.06 61.34L56.24 65.52C57.97 67.25 57.89 70.13 56.07 71.95L56.07 71.95C54.25 73.78 51.37 73.85 49.64 72.12L46.5 68.98" />
			<path id="&lt;Path&gt;" class="shp0" d="M54.59 25.25L76.38 47.05" />
			<path id="&lt;Path&gt;" class="shp0" d="M20.91 43.39L2.29 24.77L21.88 5.43L30.83 14.37C37 12.77 43.16 12.87 49.3 14.67" />
			<path id="&lt;Path&gt;" class="shp0" d="M48.2 60.76L48.46 61.01C50.12 62.67 50.12 65.37 48.46 67.03L44.55 70.94C42.89 72.6 40.19 72.6 38.53 70.94L38.28 70.69C36.62 69.03 36.62 66.33 38.28 64.67L42.19 60.76C43.85 59.1 46.54 59.1 48.2 60.76Z" />
			<path id="&lt;Path&gt;" class="shp0" d="M42.62 52.78L42.87 53.03C44.53 54.69 44.53 57.39 42.87 59.05L37.28 64.64C35.62 66.3 32.92 66.3 31.26 64.64L31.01 64.39C29.35 62.73 29.35 60.03 31.01 58.37L36.6 52.78C38.26 51.12 40.95 51.12 42.62 52.78Z" />
			<path id="&lt;Path&gt;" class="shp0" d="M30.08 40.24L30.33 40.49C31.99 42.15 31.99 44.85 30.33 46.51L24.74 52.1C23.08 53.76 20.38 53.76 18.72 52.1L18.47 51.85C16.81 50.19 16.81 47.49 18.47 45.83L24.06 40.24C25.72 38.58 28.42 38.58 30.08 40.24Z" />
			<path id="&lt;Path&gt;" class="shp0" d="M37.5 45.36L37.75 45.61C39.41 47.27 39.41 49.97 37.75 51.63L29.86 59.52C28.2 61.18 25.5 61.18 23.84 59.52L23.59 59.27C21.93 57.61 21.93 54.91 23.59 53.25L31.48 45.36C33.14 43.7 35.84 43.7 37.5 45.36Z" />
			<path id="&lt;Path&gt;" class="shp0" d="M73.06 43.41L95.5 20.97L77.02 2.5L61.08 18.88C54 14.01 48.48 13.11 44.52 16.19C41.64 18.43 38.75 20.29 36.55 21.6C34.35 22.91 33.5 25.67 34.56 28L34.56 28C35.76 30.64 38.93 31.72 41.49 30.38L51.93 24.91" />
		</g>
	</g>
</svg>