<svg xmlns="http://www.w3.org/2000/svg" viewBox="0 0 93 93" width="46" height="47">
	<style>
		tspan { white-space:pre }
		.shp0 { fill: none;stroke: #000;stroke-linecap:round;stroke-linejoin:round;stroke-width: 4 } 
	</style>
	<g id="Layer 2">
		<g id="&lt;Group&gt;">
			<path id="&lt;Path&gt;" class="shp0" d="M78.34 24.23C90.1 40.59 88.62 63.52 73.91 78.22C57.57 94.57 31.07 94.57 14.72 78.22C-1.62 61.88 -1.62 35.38 14.72 19.03C29.02 4.73 51.1 2.94 67.35 13.67" />
			<path id="&lt;Path&gt;" class="shp0" d="M64.08 68.39C53.17 79.31 35.47 79.31 24.56 68.39C13.64 57.48 13.64 39.78 24.56 28.87C35.47 17.95 53.17 17.95 64.08 28.87C75 39.78 75 57.48 64.08 68.39Z" />
			<path id="&lt;Path&gt;" class="shp0" d="M54.03 58.34C48.67 63.71 39.97 63.71 34.6 58.34C29.24 52.98 29.24 44.28 34.6 38.91C39.97 33.55 48.67 33.55 54.03 38.91C59.4 44.28 59.4 52.98 54.03 58.34Z" />
			<path id="&lt;Path&gt;" class="shp0" d="M43.78 48.9L66.04 26.64" />
			<path id="&lt;Path&gt;" class="shp0" d="M76.92 25.65L67.52 25.16L66.7 15.43L79.22 2.9C80.47 1.66 82.59 2.51 82.64 4.27L82.74 8.72L88.61 9.37C90.27 9.55 90.99 11.58 89.8 12.77L76.92 25.65Z" />
		</g>
	</g>
</svg>