<svg xmlns="http://www.w3.org/2000/svg" viewBox="0 0 611 611" width="95" height="95"><style>.shp1{fill:#fff}</style><g id="Warstwa 1"><path id="&lt;Path&gt;" d="M606.09 606.58H4.32V4.81h601.77v601.77z" fill="none" stroke="#fff" stroke-width="8"/><g id="&lt;Group&gt;"><path id="&lt;Compound Path&gt;" class="shp1" d="M123.78 158.52h50.29v18.06h-30.99v32.76h22.31v18.06h-22.31v37.36h30.99v18.77h-50.29V158.52zm75.79 0l11.51 74.01c1.06 6.73 2.12 15.23 2.12 26.03v2.3c.36-12.74 1.24-22.13 2.13-28.33l11.15-74.01h18.95l-22.14 125.01h-20.18L180.8 158.52h18.77zm57.37 0h50.28v18.06h-30.98v32.76h22.31v18.06h-22.31v37.36h30.98v18.77h-50.28V158.52z"/><path id="&lt;Compound Path&gt;" fill-rule="evenodd" class="shp1" d="M341.22 283.53h-19.3V158.52h28.33c20.89 0 30.1 10.45 30.1 36.12 0 14.88-3.19 24.44-12.22 30.81l14.17 58.08h-20.01l-11.86-52.59h-9.21v52.59zm0-70.65h7.61c9.39 0 11.87-5.14 11.87-18.95 0-13.28-3.19-17.35-12.58-17.35h-6.9v36.3z"/><path id="&lt;Compound Path&gt;" class="shp1" d="M403.37 158.52l12.57 49.93h1.24l11.86-49.93h19.66l-22.49 73.13v51.88h-19.3v-49.58l-23.02-75.43h19.48zM142.4 316.11l8.5 74.01c.71 6.2 1.24 12.58 1.24 19.66v2.48c.71-12.93 1.06-21.07 1.59-24.61l9.56-71.54h16.47l10.27 74.01c.88 6.2 1.24 13.64 1.24 22.14.53-10.45.88-18.6 1.59-24.61l7.97-71.54h18.24l-19.48 125.01h-16.11l-10.63-72.6c-.7-4.96-1.24-12.39-1.24-22.13-.7 13.63-1.23 21.78-1.59 24.61l-10.27 70.12h-16.11l-19.65-125.01h18.41zm106.95 0v51h19.3v-51h19.3v125.01h-19.3v-55.95h-19.3v55.95h-19.13V316.11h19.13zm58.43 0h50.28v18.06h-30.98v32.76h22.31v18.06h-22.31v37.36h30.98v18.77h-50.28V316.11z"/><path id="&lt;Compound Path&gt;" fill-rule="evenodd" class="shp1" d="M392.06 441.12h-19.3V316.11h28.33c20.9 0 30.1 10.45 30.1 36.12 0 14.88-3.19 24.44-12.22 30.81l14.17 58.08h-20.01l-11.86-52.59h-9.21v52.59zm0-70.65h7.61c9.39 0 11.87-5.14 11.87-18.95 0-13.28-3.19-17.35-12.57-17.35h-6.91v36.3z"/><path id="&lt;Compound Path&gt;" class="shp1" d="M446.77 316.11h50.29v18.06h-30.99v32.76h22.31v18.06h-22.31v37.36h30.99v18.77h-50.29V316.11z"/></g><g id="&lt;Group&gt;"><path id="&lt;Compound Path&gt;" class="shp1" d="M466.03 158.71h16.99v5.16h-5.76v30.55h-5.52v-30.55h-5.71v-5.16zm19.47 0h7.33l3.59 19.78c.31 1.61.46 3.44.46 5.36 0-1.82.2-3.59.5-5.31l3.44-19.83h7.44v35.71h-5.16v-22.56c0-1.01.1-3.08.4-6.22-.4 2.43-.66 4.1-.86 5.06l-4.5 23.72h-2.73l-4.3-23.72c-.5-2.88-.76-4.6-.86-5.06.26 2.68.36 4.76.36 6.22v22.56h-5.11v-35.71z"/></g></g></svg>