<svg xmlns="http://www.w3.org/2000/svg" viewBox="0 0 98 76" width="46" height="47"><style>.shp0{fill:none;stroke:#000;stroke-linecap:round;stroke-linejoin:round;stroke-width:4}</style><g id="Layer 2"><g id="&lt;Group&gt;"><path id="&lt;Path&gt;" class="shp0" d="M74.38 46.05l4.37 4.36a4.436 4.436 0 010 6.27 4.436 4.436 0 01-6.27 0l-3.04-3.04"/><path id="&lt;Path&gt;" class="shp0" d="M68.12 52.32l7 7a4.436 4.436 0 010 6.27 4.436 4.436 0 01-6.27 0l-7-7"/><path id="&lt;Path&gt;" class="shp0" d="M60.09 56.83l7.44 7.44a4.436 4.436 0 010 6.27 4.436 4.436 0 01-6.27 0l-7.44-7.44m-1.76-1.76l4.18 4.18c1.73 1.73 1.65 4.61-.17 6.43-1.82 1.83-4.7 1.9-6.43.17l-3.14-3.14m8.09-43.73l21.79 21.8m-55.47-3.66L2.29 24.77 21.88 5.43l8.95 8.94c6.17-1.6 12.33-1.5 18.47.3"/><path id="&lt;Path&gt;" class="shp0" d="M48.2 60.76l.26.25a4.261 4.261 0 010 6.02l-3.91 3.91a4.261 4.261 0 01-6.02 0l-.25-.25a4.261 4.261 0 010-6.02l3.91-3.91a4.249 4.249 0 016.01 0zm-5.58-7.98l.25.25a4.261 4.261 0 010 6.02l-5.59 5.59a4.261 4.261 0 01-6.02 0l-.25-.25a4.261 4.261 0 010-6.02l5.59-5.59a4.261 4.261 0 016.02 0zM30.08 40.24l.25.25a4.261 4.261 0 010 6.02l-5.59 5.59a4.261 4.261 0 01-6.02 0l-.25-.25a4.261 4.261 0 010-6.02l5.59-5.59a4.261 4.261 0 016.02 0z"/><path id="&lt;Path&gt;" class="shp0" d="M37.5 45.36l.25.25a4.261 4.261 0 010 6.02l-7.89 7.89a4.261 4.261 0 01-6.02 0l-.25-.25a4.261 4.261 0 010-6.02l7.89-7.89a4.261 4.261 0 016.02 0zm35.56-1.95L95.5 20.97 77.02 2.5 61.08 18.88c-7.08-4.87-12.6-5.77-16.56-2.69-2.88 2.24-5.77 4.1-7.97 5.41-2.2 1.31-3.05 4.07-1.99 6.4a5.044 5.044 0 006.93 2.38l10.44-5.47"/></g></g></svg>