<svg xmlns="http://www.w3.org/2000/svg" viewBox="0 0 90 84" width="46" height="47"><style>.shp0{fill:none;stroke:#000;stroke-linecap:round;stroke-linejoin:round;stroke-width:4}</style><g id="Layer 2"><g id="&lt;Group&gt;"><path id="&lt;Path&gt;" class="shp0" d="M67.91 66.44V3.9c0-.79 1.09-1.42 2.44-1.42h6.68c1.35 0 2.44.63 2.44 1.42v62.54c0 .78-1.09 1.41-2.44 1.41h-6.68c-1.35 0-2.44-.63-2.44-1.41zm0-2.92l-37.85-12.9V19.71l37.85-12.9v56.71z"/><path id="&lt;Path&gt;" class="shp0" d="M12.67 48.85V21.71a2 2 0 012-2h15.39v31.14H14.67a2 2 0 01-2-2zM1.92 44.08V26.43c0-1.1.9-2 2-2h8.75v21.65H3.92a2 2 0 01-2-2zm78.49-22.36c4.09 0 7.41 6.02 7.41 13.45 0 7.42-3.32 13.44-7.41 13.44M21.23 82.12c-3.63 0-6.56-2.94-6.56-6.56V50.85h13.12v24.71c0 3.62-2.94 6.56-6.56 6.56z"/></g></g></svg>