<svg xmlns="http://www.w3.org/2000/svg" viewBox="0 0 93 93" width="46" height="47"><style>.shp0{fill:none;stroke:#000;stroke-linecap:round;stroke-linejoin:round;stroke-width:4}</style><g id="Layer 2"><g id="&lt;Group&gt;"><path id="&lt;Path&gt;" class="shp0" d="M78.34 24.23c11.76 16.36 10.28 39.29-4.43 53.99-16.34 16.35-42.84 16.35-59.19 0-16.34-16.34-16.34-42.84 0-59.19 14.3-14.3 36.38-16.09 52.63-5.36"/><path id="&lt;Path&gt;" class="shp0" d="M64.08 68.39c-10.91 10.92-28.61 10.92-39.52 0-10.92-10.91-10.92-28.61 0-39.52 10.91-10.92 28.61-10.92 39.52 0C75 39.78 75 57.48 64.08 68.39z"/><path id="&lt;Path&gt;" class="shp0" d="M54.03 58.34c-5.36 5.37-14.06 5.37-19.43 0-5.36-5.36-5.36-14.06 0-19.43 5.37-5.36 14.07-5.36 19.43 0 5.37 5.37 5.37 14.07 0 19.43zM43.78 48.9l22.26-22.26m10.88-.99l-9.4-.49-.82-9.73L79.22 2.9c1.25-1.24 3.37-.39 3.42 1.37l.1 4.45 5.87.65c1.66.18 2.38 2.21 1.19 3.4L76.92 25.65z"/></g></g></svg>